<svg xmlns="http://www.w3.org/2000/svg" viewBox="0 0 100 100" fill="currentColor">
  <rect x="5" y="5" width="90" height="90" fill="none" stroke="currentColor" stroke-width="3"/>
  <path d="M20 20 L30 30 L20 40 L30 50 L20 60 L30 70 L20 80"/>
  <path d="M80 20 L70 30 L80 40 L70 50 L80 60 L70 70 L80 80"/>
  <path d="M20 20 L30 30 L40 20 L50 30 L60 20 L70 30 L80 20"/>
  <path d="M20 80 L30 70 L40 80 L50 70 L60 80 L70 70 L80 80"/>
  <path d="M35 35 L50 20 L65 35 L50 50 Z"/>
  <path d="M35 65 L50 80 L65 65 L50 50 Z"/>
  <circle cx="50" cy="50" r="6"/>
</svg>
